<svg width="205" height="63" viewBox="0 0 205 63" fill="none" xmlns="http://www.w3.org/2000/svg">
<path d="M84.048 31.24C81.344 31.24 79.28 30.552 77.856 29.176C76.448 27.784 75.744 25.856 75.744 23.392C75.744 20.816 76.432 18.824 77.808 17.416C79.2 16.008 81.272 15.304 84.024 15.304C84.968 15.304 85.808 15.376 86.544 15.52C87.296 15.664 88.016 15.856 88.704 16.096V19.48C87.312 18.904 85.848 18.616 84.312 18.616C82.712 18.616 81.536 19 80.784 19.768C80.048 20.536 79.68 21.744 79.68 23.392C79.68 24.96 80.072 26.112 80.856 26.848C81.64 27.584 82.808 27.952 84.36 27.952C85.112 27.952 85.856 27.888 86.592 27.76C87.328 27.616 88.04 27.4 88.728 27.112V30.52C88.056 30.744 87.344 30.92 86.592 31.048C85.84 31.176 84.992 31.24 84.048 31.24ZM96.6129 31.24C94.4209 31.24 92.8049 30.736 91.7649 29.728C90.7249 28.704 90.2049 27.232 90.2049 25.312C90.2049 23.408 90.7249 21.944 91.7649 20.92C92.8209 19.896 94.4369 19.384 96.6129 19.384C98.8049 19.384 100.421 19.896 101.461 20.92C102.517 21.944 103.045 23.408 103.045 25.312C103.045 27.232 102.525 28.704 101.485 29.728C100.445 30.736 98.8209 31.24 96.6129 31.24ZM96.6129 28.216C97.5089 28.216 98.1489 27.992 98.5329 27.544C98.9169 27.096 99.1089 26.352 99.1089 25.312C99.1089 24.272 98.9169 23.528 98.5329 23.08C98.1489 22.632 97.5089 22.408 96.6129 22.408C95.7329 22.408 95.1009 22.632 94.7169 23.08C94.3329 23.528 94.1409 24.272 94.1409 25.312C94.1409 26.352 94.3329 27.096 94.7169 27.544C95.1009 27.992 95.7329 28.216 96.6129 28.216ZM108.917 31.24C107.573 31.24 106.525 30.864 105.773 30.112C105.021 29.344 104.645 28.232 104.645 26.776V19.624H108.509V26.56C108.509 27.2 108.661 27.672 108.965 27.976C109.285 28.264 109.757 28.408 110.381 28.408C110.845 28.408 111.285 28.312 111.701 28.12C112.117 27.928 112.461 27.688 112.733 27.4V19.624H116.597V31H112.997L112.877 30.04C112.413 30.392 111.853 30.68 111.197 30.904C110.541 31.128 109.781 31.24 108.917 31.24ZM119.044 31V19.624H122.716L122.836 20.68C123.332 20.376 123.948 20.104 124.684 19.864C125.42 19.608 126.156 19.448 126.892 19.384V22.288C126.476 22.336 126.012 22.416 125.5 22.528C125.004 22.624 124.524 22.744 124.06 22.888C123.612 23.032 123.228 23.184 122.908 23.344V31H119.044ZM132.456 31.24C131.544 31.24 130.68 31.176 129.864 31.048C129.048 30.92 128.4 30.76 127.92 30.568V27.616C128.48 27.856 129.128 28.04 129.864 28.168C130.6 28.296 131.256 28.36 131.832 28.36C132.52 28.36 133.016 28.328 133.32 28.264C133.64 28.2 133.8 28.024 133.8 27.736C133.8 27.416 133.544 27.176 133.032 27.016C132.52 26.856 131.816 26.624 130.92 26.32C129.88 25.952 129.088 25.528 128.544 25.048C128.016 24.552 127.752 23.824 127.752 22.864C127.752 21.744 128.168 20.888 129 20.296C129.848 19.688 131.192 19.384 133.032 19.384C133.752 19.384 134.464 19.44 135.168 19.552C135.872 19.664 136.448 19.792 136.896 19.936V22.84C136.448 22.632 135.936 22.48 135.36 22.384C134.784 22.288 134.264 22.24 133.8 22.24C133.208 22.24 132.704 22.28 132.288 22.36C131.888 22.424 131.688 22.592 131.688 22.864C131.688 23.168 131.912 23.384 132.36 23.512C132.808 23.624 133.456 23.816 134.304 24.088C135.2 24.36 135.896 24.656 136.392 24.976C136.888 25.28 137.24 25.648 137.448 26.08C137.656 26.512 137.76 27.056 137.76 27.712C137.76 28.848 137.312 29.72 136.416 30.328C135.52 30.936 134.2 31.24 132.456 31.24ZM145.461 31.24C143.477 31.24 141.885 30.752 140.685 29.776C139.485 28.784 138.885 27.296 138.885 25.312C138.885 23.504 139.381 22.064 140.373 20.992C141.365 19.92 142.853 19.384 144.837 19.384C146.645 19.384 148.045 19.848 149.037 20.776C150.029 21.704 150.525 22.952 150.525 24.52V26.56H142.461C142.637 27.312 143.045 27.84 143.685 28.144C144.341 28.432 145.229 28.576 146.349 28.576C146.973 28.576 147.605 28.52 148.245 28.408C148.901 28.296 149.445 28.152 149.877 27.976V30.496C149.333 30.752 148.685 30.936 147.933 31.048C147.181 31.176 146.357 31.24 145.461 31.24ZM142.461 24.328H147.165V23.824C147.165 23.264 146.997 22.824 146.661 22.504C146.325 22.168 145.757 22 144.957 22C144.029 22 143.381 22.192 143.013 22.576C142.645 22.944 142.461 23.528 142.461 24.328Z" fill="#675454" style="fill:#675454;fill:color(display-p3 0.4049 0.3307 0.3307);fill-opacity:1;"/>
<path d="M80.4084 51V39.408H85.7724C86.9124 39.408 87.7464 39.678 88.2744 40.218C88.8144 40.746 89.0844 41.496 89.0844 42.468C89.0844 43.104 88.9524 43.638 88.6884 44.07C88.4364 44.49 88.0824 44.808 87.6264 45.024C88.2144 45.168 88.6764 45.45 89.0124 45.87C89.3604 46.278 89.5344 46.884 89.5344 47.688C89.5344 48.816 89.2404 49.65 88.6524 50.19C88.0644 50.73 87.2004 51 86.0604 51H80.4084ZM81.8844 44.484H85.6824C86.4144 44.484 86.9304 44.31 87.2304 43.962C87.5424 43.602 87.6984 43.14 87.6984 42.576C87.6984 41.904 87.5424 41.4 87.2304 41.064C86.9184 40.716 86.3124 40.542 85.4124 40.542H81.8844V44.484ZM81.8844 49.884H85.8084C86.5884 49.884 87.1584 49.716 87.5184 49.38C87.8784 49.032 88.0584 48.45 88.0584 47.634C88.0584 46.962 87.8784 46.458 87.5184 46.122C87.1704 45.774 86.5224 45.6 85.5744 45.6H81.8844V49.884ZM94.6996 51.18C93.6796 51.18 92.9056 50.898 92.3776 50.334C91.8616 49.77 91.6036 48.948 91.6036 47.868V42.468H93.0796V47.922C93.0796 48.63 93.2536 49.152 93.6016 49.488C93.9616 49.824 94.5136 49.992 95.2576 49.992C95.7856 49.992 96.2836 49.896 96.7516 49.704C97.2196 49.512 97.6216 49.248 97.9576 48.912V42.468H99.4336V51H98.1016L98.0116 50.028C97.6036 50.364 97.1176 50.64 96.5536 50.856C95.9896 51.072 95.3716 51.18 94.6996 51.18ZM102.769 40.47V39.12H104.407V40.47H102.769ZM102.913 51V43.638H101.599L101.743 42.468H104.389V51H102.913ZM108.788 51.18C108.212 51.18 107.756 51.03 107.42 50.73C107.096 50.418 106.934 49.896 106.934 49.164V38.868H108.41V49.002C108.41 49.362 108.47 49.608 108.59 49.74C108.71 49.872 108.896 49.938 109.148 49.938C109.424 49.938 109.694 49.902 109.958 49.83V51C109.766 51.072 109.574 51.12 109.382 51.144C109.19 51.168 108.992 51.18 108.788 51.18ZM115.154 51.18C113.954 51.18 113.012 50.85 112.328 50.19C111.644 49.518 111.302 48.408 111.302 46.86C111.302 45.324 111.656 44.178 112.364 43.422C113.084 42.666 114.044 42.288 115.244 42.288C116.312 42.288 117.236 42.558 118.016 43.098V38.868H119.492V51H118.232L118.124 50.1C117.728 50.472 117.29 50.748 116.81 50.928C116.342 51.096 115.79 51.18 115.154 51.18ZM115.532 49.992C116.024 49.992 116.48 49.908 116.9 49.74C117.32 49.572 117.692 49.314 118.016 48.966V44.322C117.716 44.058 117.362 43.854 116.954 43.71C116.546 43.554 116.084 43.476 115.568 43.476C114.62 43.476 113.918 43.752 113.462 44.304C113.006 44.844 112.778 45.696 112.778 46.86C112.778 47.976 112.988 48.78 113.408 49.272C113.828 49.752 114.536 49.992 115.532 49.992ZM126.034 51.18C124.51 51.18 123.37 50.814 122.614 50.082C121.858 49.35 121.48 48.222 121.48 46.698C121.48 45.33 121.804 44.256 122.452 43.476C123.112 42.684 124.15 42.288 125.566 42.288C126.406 42.288 127.096 42.444 127.636 42.756C128.188 43.056 128.596 43.476 128.86 44.016C129.136 44.544 129.274 45.144 129.274 45.816V47.418H122.956C123.004 48.066 123.142 48.576 123.37 48.948C123.61 49.32 123.964 49.59 124.432 49.758C124.912 49.914 125.542 49.992 126.322 49.992C127.198 49.992 128.002 49.842 128.734 49.542V50.694C128.362 50.85 127.942 50.97 127.474 51.054C127.018 51.138 126.538 51.18 126.034 51.18ZM122.956 46.356H127.96V45.654C127.96 44.958 127.774 44.424 127.402 44.052C127.042 43.668 126.442 43.476 125.602 43.476C124.582 43.476 123.886 43.716 123.514 44.196C123.142 44.676 122.956 45.396 122.956 46.356ZM131.438 51V42.468H132.77L132.878 43.548C133.298 43.272 133.79 43.02 134.354 42.792C134.93 42.564 135.494 42.396 136.046 42.288V43.44C135.71 43.512 135.344 43.614 134.948 43.746C134.552 43.866 134.174 44.004 133.814 44.16C133.454 44.316 133.154 44.478 132.914 44.646V51H131.438ZM141.449 46.752V45.582H148.235V46.752H141.449ZM159.521 51.18C157.709 51.18 156.365 50.706 155.489 49.758C154.613 48.798 154.175 47.28 154.175 45.204C154.175 43.128 154.613 41.616 155.489 40.668C156.365 39.708 157.709 39.228 159.521 39.228C161.345 39.228 162.689 39.708 163.553 40.668C164.429 41.616 164.867 43.128 164.867 45.204C164.867 47.28 164.429 48.798 163.553 49.758C162.689 50.706 161.345 51.18 159.521 51.18ZM159.521 49.92C160.397 49.92 161.117 49.77 161.681 49.47C162.257 49.17 162.683 48.678 162.959 47.994C163.247 47.298 163.391 46.368 163.391 45.204C163.391 44.04 163.247 43.116 162.959 42.432C162.683 41.736 162.257 41.238 161.681 40.938C161.117 40.638 160.397 40.488 159.521 40.488C158.645 40.488 157.919 40.638 157.343 40.938C156.779 41.238 156.353 41.736 156.065 42.432C155.789 43.116 155.651 44.04 155.651 45.204C155.651 46.368 155.789 47.298 156.065 47.994C156.353 48.678 156.779 49.17 157.343 49.47C157.919 49.77 158.645 49.92 159.521 49.92ZM167.033 51V42.468H168.365L168.455 43.44C168.863 43.104 169.337 42.828 169.877 42.612C170.429 42.396 171.059 42.288 171.767 42.288C172.847 42.288 173.633 42.54 174.125 43.044C174.617 43.548 174.863 44.34 174.863 45.42V51H173.387V45.474C173.387 44.73 173.237 44.214 172.937 43.926C172.637 43.626 172.061 43.476 171.209 43.476C170.681 43.476 170.183 43.572 169.715 43.764C169.247 43.956 168.845 44.22 168.509 44.556V51H167.033ZM179.153 51.18C178.577 51.18 178.121 51.03 177.785 50.73C177.461 50.418 177.299 49.896 177.299 49.164V38.868H178.775V49.002C178.775 49.362 178.835 49.608 178.955 49.74C179.075 49.872 179.261 49.938 179.513 49.938C179.789 49.938 180.059 49.902 180.323 49.83V51C180.131 51.072 179.939 51.12 179.747 51.144C179.555 51.168 179.357 51.18 179.153 51.18ZM182.205 40.47V39.12H183.843V40.47H182.205ZM182.349 51V43.638H181.035L181.179 42.468H183.825V51H182.349ZM186.369 51V42.468H187.701L187.791 43.44C188.199 43.104 188.673 42.828 189.213 42.612C189.765 42.396 190.395 42.288 191.103 42.288C192.183 42.288 192.969 42.54 193.461 43.044C193.953 43.548 194.199 44.34 194.199 45.42V51H192.723V45.474C192.723 44.73 192.573 44.214 192.273 43.926C191.973 43.626 191.397 43.476 190.545 43.476C190.017 43.476 189.519 43.572 189.051 43.764C188.583 43.956 188.181 44.22 187.845 44.556V51H186.369ZM200.548 51.18C199.024 51.18 197.884 50.814 197.128 50.082C196.372 49.35 195.994 48.222 195.994 46.698C195.994 45.33 196.318 44.256 196.966 43.476C197.626 42.684 198.664 42.288 200.08 42.288C200.92 42.288 201.61 42.444 202.15 42.756C202.702 43.056 203.11 43.476 203.374 44.016C203.65 44.544 203.788 45.144 203.788 45.816V47.418H197.47C197.518 48.066 197.656 48.576 197.884 48.948C198.124 49.32 198.478 49.59 198.946 49.758C199.426 49.914 200.056 49.992 200.836 49.992C201.712 49.992 202.516 49.842 203.248 49.542V50.694C202.876 50.85 202.456 50.97 201.988 51.054C201.532 51.138 201.052 51.18 200.548 51.18ZM197.47 46.356H202.474V45.654C202.474 44.958 202.288 44.424 201.916 44.052C201.556 43.668 200.956 43.476 200.116 43.476C199.096 43.476 198.4 43.716 198.028 44.196C197.656 44.676 197.47 45.396 197.47 46.356Z" fill="#675454" style="fill:#675454;fill:color(display-p3 0.4049 0.3307 0.3307);fill-opacity:1;"/>
<path d="M68.9936 21.3365C68.9936 25.5515 65.2272 28.9677 60.5896 28.9677C58.3221 28.9677 56.2724 28.1527 54.7607 26.8305C54.2739 26.253 53.7743 25.6702 53.2746 25.0927C52.1024 23.7327 50.8982 22.3673 49.6556 21.0235C49.1687 20.4892 48.6947 19.9765 48.2271 19.4746C47.8428 19.059 47.4585 18.6434 47.087 18.2387C41.732 12.8634 32.4569 10.1703 23.2779 11.811C14.2078 13.4516 5.22739 19.4206 2.91502 31.3693C2.40259 34.9042 0.16068 35.1417 0.000543478 31.094C-0.0763219 17.7314 8.00735 7.86048 19.7293 3.12741C31.3488 -1.60565 46.613 -1.20628 58.431 5.97697C59.2893 6.47348 60.1413 7.04015 60.9676 7.68238C61.9604 8.44874 62.9148 9.31764 63.8052 10.2837C66.457 13.0523 68.0392 16.3929 68.7822 19.6311C68.8206 19.793 68.8591 19.9603 68.8911 20.1168C68.8911 20.133 68.8975 20.1546 68.9039 20.1762C68.968 20.5539 69 20.9425 69 21.3365H68.9936Z" fill="#EBA02D" style="fill:#EBA02D;fill:color(display-p3 0.9216 0.6275 0.1765);fill-opacity:1;"/>
<g style="mix-blend-mode:overlay" opacity="0.5">
<path d="M67.7121 21.3361C67.7121 24.9466 64.5158 27.8879 60.5892 27.8879C58.7829 27.8879 57.0662 27.2618 55.7467 26.1339C55.2727 25.5726 54.7923 25.0167 54.3055 24.4555C52.986 22.9227 51.7945 21.5843 50.6608 20.3538C50.1804 19.8249 49.7 19.3122 49.2324 18.8049L48.0986 17.5744C43.5187 12.9709 36.2677 10.2455 28.6709 10.2455C26.7749 10.2455 24.8725 10.4128 23.0149 10.7474C19.6905 11.3518 16.6479 12.4366 13.964 13.9531C13.5604 12.129 13.3555 10.2509 13.3555 8.33498C13.3555 8.15688 13.3555 7.97878 13.3555 7.80068C15.4244 6.36511 17.7368 5.12383 20.2798 4.09842C25.1287 2.12317 30.6374 1.07617 36.2165 1.07617C44.0376 1.07617 51.4615 3.07302 57.6747 6.85083C58.5395 7.35274 59.3466 7.89243 60.096 8.4699C61.0568 9.21467 61.96 10.0458 62.7863 10.9417C65.7136 14.0071 66.9755 17.4665 67.5135 19.8303C67.5519 19.9868 67.584 20.1433 67.616 20.2945V20.3322C67.68 20.683 67.7057 21.0122 67.7057 21.3361H67.7121Z" fill="white" style="fill:white;fill:white;fill-opacity:1;"/>
</g>
<path d="M68.3847 41.2717C68.3847 45.2762 65.8994 49.4858 63.0681 52.589C62.1586 53.582 61.1785 54.4725 60.1601 55.255C59.3082 55.9081 58.437 56.4855 57.5595 56.9928C56.5474 57.6135 55.5097 58.1801 54.4528 58.6928L52.8643 58.6119C43.1728 58.1262 31.9441 53.4741 26.8838 48.2931C27.14 48.401 27.4154 48.5035 27.6781 48.6007C27.6909 48.6007 27.6973 48.6115 27.7037 48.6115C29.3947 49.0594 31.1882 49.2969 33.0586 49.2969C37.1261 49.2969 40.8669 48.1581 43.8902 46.2422C44.3258 45.967 44.7358 45.6756 45.1265 45.3679C48.6303 42.5778 50.475 38.5625 53.8059 35.6482C55.356 34.2935 57.457 33.457 59.7757 33.457C62.3315 33.457 64.6311 34.4716 66.2004 36.0799C67.5584 37.4561 68.3847 39.2803 68.3847 41.2663V41.2717Z" fill="#EBA02D" style="fill:#EBA02D;fill:color(display-p3 0.9216 0.6275 0.1765);fill-opacity:1;"/>
<path d="M52.8008 59.5612C47.9647 61.5257 42.7827 62.5349 37.6519 62.6968H37.6263C18.7815 62.1301 3.28672 50.2408 0.461914 34.8813C0.775781 35.0216 1.08324 35.0648 1.33305 35.0648C2.22341 35.0648 2.95363 34.5467 3.45326 33.6076C3.75431 33.0517 3.96569 32.3447 4.08099 31.5136C6.82893 17.2713 18.6021 13.6607 23.5279 12.7703C24.4311 12.6084 25.3599 12.4842 26.2887 12.4141C18.8904 16.2728 14.1183 23.3913 14.8229 31.3733C15.2649 36.4464 18.1794 41.0877 21.9394 44.9734C23.1052 46.1823 24.3542 47.402 25.6737 48.5785L25.6545 48.6001C32.6493 55.071 42.4944 59.0377 52.8008 59.5558V59.5612Z" fill="#373538" style="fill:#373538;fill:color(display-p3 0.2157 0.2078 0.2196);fill-opacity:1;"/>
</svg>
