<svg width="61" height="60" viewBox="0 0 61 60" fill="none" xmlns="http://www.w3.org/2000/svg">
<path d="M0.949219 29.9898C0.949219 13.4269 14.1801 0 30.5012 0C46.8223 0 60.0531 13.4269 60.0531 29.9898C60.0531 46.5528 46.8223 59.9797 30.5012 59.9797C14.1801 59.9797 0.949219 46.5528 0.949219 29.9898Z" fill="#EBA02D" style="fill:#EBA02D;fill:color(display-p3 0.9216 0.6275 0.1765);fill-opacity:1;"/>
<mask id="mask0_198_1294" style="mask-type:luminance" maskUnits="userSpaceOnUse" x="0" y="0" width="61" height="60">
<path fill-rule="evenodd" clip-rule="evenodd" d="M0.949219 29.9898C0.949219 13.4269 14.1801 0 30.5012 0C46.8223 0 60.0531 13.4269 60.0531 29.9898C60.0531 46.5528 46.8223 59.9797 30.5012 59.9797C14.1801 59.9797 0.949219 46.5528 0.949219 29.9898Z" fill="white" style="fill:white;fill:white;fill-opacity:1;"/>
</mask>
<g mask="url(#mask0_198_1294)">
<path fill-rule="evenodd" clip-rule="evenodd" d="M30.5028 13.9961C26.2223 13.9961 25.6851 14.0151 24.0039 14.0927C22.326 14.1707 21.1807 14.4403 20.1785 14.8358C19.1419 15.2444 18.2625 15.7908 17.3865 16.6802C16.5098 17.5693 15.9713 18.4616 15.5674 19.5133C15.1766 20.5306 14.9107 21.6932 14.8351 23.3953C14.7599 25.1015 14.7402 25.6469 14.7402 29.9908C14.7402 34.3348 14.7593 34.8782 14.8355 36.5843C14.9126 38.2871 15.1783 39.4494 15.5677 40.4664C15.9706 41.5184 16.5091 42.4108 17.3855 43.2998C18.2612 44.1895 19.1406 44.7373 20.1765 45.1459C21.1793 45.5414 22.325 45.811 24.0026 45.889C25.6838 45.9666 26.2206 45.9856 30.5008 45.9856C34.7816 45.9856 35.3171 45.9666 36.9983 45.889C38.6763 45.811 39.8229 45.5414 40.8257 45.1459C41.862 44.7373 42.74 44.1895 43.6158 43.2998C44.4925 42.4108 45.031 41.5184 45.4349 40.4667C45.8223 39.4494 46.0883 38.2868 46.1671 36.5847C46.2426 34.8786 46.2623 34.3348 46.2623 29.9908C46.2623 25.6469 46.2426 25.1018 46.1671 23.3957C46.0883 21.6929 45.8223 20.5306 45.4349 19.5136C45.031 18.4616 44.4925 17.5693 43.6158 16.6802C42.739 15.7905 41.8623 15.244 40.8247 14.8358C39.8199 14.4403 38.674 14.1707 36.996 14.0927C35.3149 14.0151 34.7796 13.9961 30.4978 13.9961H30.5028ZM29.9768 16.8783H29.9774L30.5028 16.8785C34.711 16.8785 35.2098 16.8938 36.8716 16.9705C38.4083 17.0418 39.2423 17.3023 39.7979 17.5213C40.5335 17.8112 41.0578 18.1577 41.6092 18.7175C42.1608 19.2774 42.5023 19.8105 42.7886 20.5569C43.0043 21.1201 43.2615 21.9665 43.3314 23.526C43.4069 25.2121 43.4233 25.7186 43.4233 29.9872C43.4233 34.2558 43.4069 34.7623 43.3314 36.4484C43.2611 38.0079 43.0043 38.8543 42.7886 39.4174C42.5029 40.1638 42.1608 40.6953 41.6092 41.2548C41.0575 41.8146 40.5338 42.1612 39.7979 42.4511C39.243 42.671 38.4083 42.9309 36.8716 43.0022C35.2101 43.0789 34.711 43.0955 30.5028 43.0955C26.2942 43.0955 25.7954 43.0789 24.1339 43.0022C22.5972 42.9303 21.7632 42.6697 21.2073 42.4508C20.4717 42.1609 19.9464 41.8143 19.3947 41.2545C18.8431 40.6947 18.5016 40.1628 18.2153 39.4161C17.9995 38.8529 17.7424 38.0066 17.6725 36.4471C17.597 34.761 17.5818 34.2544 17.5818 29.9832C17.5818 25.7119 17.597 25.2081 17.6725 23.522C17.7427 21.9625 17.9995 21.1161 18.2153 20.5523C18.5009 19.8059 18.8431 19.2727 19.3947 18.7129C19.9464 18.1531 20.4717 17.8065 21.2073 17.5159C21.7628 17.296 22.5972 17.0361 24.1339 16.9645C25.5879 16.8978 26.1514 16.8778 29.0888 16.8745V16.8785C29.3631 16.878 29.6581 16.8782 29.9763 16.8783H29.9766H29.9768ZM37.0246 21.453C37.0246 20.393 37.8718 19.5343 38.916 19.5343V19.5336C39.9601 19.5336 40.8073 20.3933 40.8073 21.453C40.8073 22.5126 39.9601 23.3724 38.916 23.3724C37.8718 23.3724 37.0246 22.5126 37.0246 21.453ZM30.5028 21.7769C26.0328 21.7769 22.4087 25.4547 22.4087 29.9908C22.4087 34.527 26.0328 38.2032 30.5028 38.2032C34.9727 38.2032 38.5955 34.527 38.5955 29.9908C38.5955 25.4547 34.9724 21.7769 30.5024 21.7769H30.5028ZM35.7565 29.9908C35.7565 27.0461 33.4041 24.6593 30.5028 24.6593C27.6011 24.6593 25.249 27.0461 25.249 29.9908C25.249 32.9352 27.6011 35.3224 30.5028 35.3224C33.4041 35.3224 35.7565 32.9352 35.7565 29.9908Z" fill="white" style="fill:white;fill:white;fill-opacity:1;"/>
</g>
</svg>
