<svg width="60" height="60" viewBox="0 0 60 60" fill="none" xmlns="http://www.w3.org/2000/svg">
<path d="M0.897461 29.9898C0.897461 13.4269 14.1283 0 30.4494 0C46.7705 0 60.0014 13.4269 60.0014 29.9898C60.0014 46.5528 46.7705 59.9797 30.4494 59.9797C14.1283 59.9797 0.897461 46.5528 0.897461 29.9898Z" fill="#EBA02D" style="fill:#EBA02D;fill:color(display-p3 0.9216 0.6275 0.1765);fill-opacity:1;"/>
<path d="M45.5518 22.5844C45.1893 21.1712 44.1212 20.0583 42.7648 19.6806C40.3068 18.9941 30.4495 18.9941 30.4495 18.9941C30.4495 18.9941 20.5922 18.9941 18.1341 19.6806C16.7777 20.0583 15.7095 21.1712 15.347 22.5844C14.6885 25.1459 14.6885 30.4902 14.6885 30.4902C14.6885 30.4902 14.6885 35.8345 15.347 38.396C15.7095 39.8093 16.7777 40.9222 18.1341 41.3001C20.5922 41.9864 30.4495 41.9864 30.4495 41.9864C30.4495 41.9864 40.3068 41.9864 42.7648 41.3001C44.1212 40.9222 45.1893 39.8093 45.5518 38.396C46.2106 35.8345 46.2106 30.4902 46.2106 30.4902C46.2106 30.4902 46.2106 25.1459 45.5518 22.5844Z" fill="white" style="fill:white;fill:white;fill-opacity:1;"/>
<path d="M27.4941 35.9869V25.9902L35.3747 30.9887L27.4941 35.9869Z" fill="#EBA02D" style="fill:#EBA02D;fill:color(display-p3 0.9216 0.6275 0.1765);fill-opacity:1;"/>
</svg>
